<?xml version="1.0" encoding="utf-8"?>
<!-- Generator: Adobe Illustrator 22.1.0, SVG Export Plug-In . SVG Version: 6.00 Build 0)  -->
<svg version="1.1" id="Layer_1" xmlns="http://www.w3.org/2000/svg" xmlns:xlink="http://www.w3.org/1999/xlink" x="0px" y="0px"
	 viewBox="0 0 512 512" style="enable-background:new 0 0 512 512;" xml:space="preserve">
<style type="text/css">
	.st0{fill:#1A72CB;}
</style>
<g id="_x30_27---Lego">
	<path id="Shape" class="st0" d="M134.3,96.5c0,14.4,18,25.2,42,25.2s42-10.8,42-25.2s-18-25.2-42-25.2S134.3,82.2,134.3,96.5z
		 M176.3,88.1c16.2,0,25.2,6.3,25.2,8.4s-8.9,8.4-25.2,8.4s-25.2-6.3-25.2-8.4S160,88.1,176.3,88.1z"/>
	<path id="Shape_1_" class="st0" d="M293.8,306.4c0,14.4,18,25.2,42,25.2s42-10.8,42-25.2c0-14.4-18-25.2-42-25.2
		S293.8,292,293.8,306.4z M360.9,306.4c0,2.1-8.9,8.4-25.2,8.4s-25.2-6.3-25.2-8.4c0-2.1,8.9-8.4,25.2-8.4S360.9,304.3,360.9,306.4z
		"/>
	<path id="Shape_2_" class="st0" d="M503.6,298c-0.1-0.6-0.2-1.2-0.4-1.7c1.2-4.1-0.9-8.4-4.8-10.1l-46.6-19.6
		c-4.5-11.1-20.4-18.9-40.6-18.9c-6,0,2.2,2.8-34.2-12.6c-2.7-10.6-15.5-18.5-32.9-20.5c0-137.7,0.3-131.4-0.7-133.7
		c-0.9-2-2.4-3.6-4.4-4.4c-1.6-0.7,0.1,0-46.7-19.7c-4.5-11.1-20.4-18.9-40.6-18.9c-6,0,2.2,2.8-34.2-12.6c-7.2-28-75.4-28-82.6,0
		c-36.4,15.3-28.2,12.6-34.2,12.6c-20.2,0-36.1,7.8-40.6,18.9c-23.4,9.9-47.8,20.1-46.7,19.7c-1.8,0.8-3.3,2.2-4.1,4
		c-1.5,2.9-1-16.6-1,284.8c0,3.4,2,6.4,5.1,7.7C350.1,514.6,332,507.8,335.7,507.8c2.8,0-7.7,4,162.7-67.8c1.6-0.6,2.9-1.7,3.6-3.2
		C504.2,433.6,503.6,443.7,503.6,298L503.6,298z M344.1,366.6l142.7-60.1v120.2l-142.7,60.1V366.6z M436.5,272.8
		c0,2.1-8.9,8.4-25.2,8.4c-16.2,0-25.2-6.3-25.2-8.4s8.9-8.4,25.2-8.4C427.5,264.4,436.5,270.7,436.5,272.8z M411.3,298
		c14.2,1.1,28.1-4.2,38-14.4l24.3,10.2l-137.9,58l-137.9-58l24.3-10.2c9.9,10.2,23.9,15.5,38,14.4c41,0,53.9-28.5,30.1-43l8.5-3.6
		c15.4,17.4,58.4,17.4,73.7,0l8.5,3.6C357.2,269.6,370.8,298,411.3,298z M294.4,235c-36.4,15.3-28.2,12.6-34.2,12.6
		c-20.2,0-36.1,7.8-40.6,18.9l-35,14.7V156.7l142.7-60.1v117.9C310,216.5,297.1,224.5,294.4,235L294.4,235z M260.2,264.4
		c16.2,0,25.2,6.3,25.2,8.4s-8.9,8.4-25.2,8.4s-25.2-6.3-25.2-8.4S243.9,264.4,260.2,264.4L260.2,264.4z M25.2,96.7l142.7,60.1
		v124.4l-142.7-60V96.7z M360.9,239.2c0,2.1-8.9,8.4-25.2,8.4s-25.2-6.3-25.2-8.4s8.9-8.4,25.2-8.4S360.9,237.1,360.9,239.2z
		 M277,63c0,2.1-8.9,8.4-25.2,8.4S226.6,65,226.6,63c0-2.1,8.9-8.4,25.2-8.4S277,60.9,277,63z M176.3,21c16.2,0,25.2,6.3,25.2,8.4
		s-8.9,8.4-25.2,8.4s-25.2-6.3-25.2-8.4S160,21,176.3,21z M139.4,41.5c15.4,17.4,58.4,17.4,73.7,0l8.5,3.6
		c-6.8,3.4-11.3,10.2-11.8,17.8c0,28.2,62.4,34,80,10.8L314.1,84l-137.9,58L38.4,84l24.3-10.2c17.5,23.2,80,17.3,80-10.8
		c-0.5-7.6-5-14.4-11.8-17.8L139.4,41.5z M100.7,54.6c16.2,0,25.2,6.3,25.2,8.4c0,2.1-8.9,8.4-25.2,8.4S75.5,65,75.5,63
		C75.5,60.9,84.5,54.6,100.7,54.6z M25.2,239.3L173,301.6l154.4,65v120.2L25.2,359.5V239.3z"/>
	<path id="Shape_3_" class="st0" d="M305.5,441.4l-184.7-80c-2.8-1.3-6-1-8.5,0.8c-2.5,1.8-3.8,4.8-3.4,7.8s2.4,5.6,5.2,6.7
		l184.7,80c2.8,1.3,6.1,1,8.5-0.8c2.5-1.8,3.8-4.8,3.4-7.9C310.4,445.1,308.4,442.5,305.5,441.4L305.5,441.4z"/>
	<path id="Shape_4_" class="st0" d="M78.9,343.1l-25.2-10.9c-4.3-1.9-9.2,0.1-11.1,4.3c-1.9,4.3,0.1,9.2,4.3,11.1l25.2,10.9
		c2.8,1.2,5.9,0.8,8.3-0.9c2.4-1.8,3.7-4.7,3.4-7.7S81.6,344.3,78.9,343.1L78.9,343.1z"/>
</g>
</svg>
